<svg width="25" height="25" viewBox="0 0 25 25" fill="none" xmlns="http://www.w3.org/2000/svg">
<path d="M21.2011 13.7862C21.0438 15.4884 20.4049 17.1106 19.3593 18.463C18.3137 19.8154 16.9046 20.842 15.2968 21.4228C13.689 22.0035 11.9491 22.1143 10.2806 21.7423C8.61209 21.3703 7.08407 20.5308 5.8753 19.322C4.66653 18.1132 3.82701 16.5852 3.45498 14.9167C3.08295 13.2482 3.19379 11.5083 3.77453 9.90051C4.35528 8.29273 5.3819 6.88358 6.73429 5.83797C8.08667 4.79236 9.70887 4.15352 11.4111 3.99622C10.4145 5.34448 9.93492 7.00567 10.0596 8.67763C10.1843 10.3496 10.9049 11.9213 12.0905 13.1068C13.276 14.2924 14.8477 15.013 16.5197 15.1377C18.1916 15.2624 19.8528 14.7828 21.2011 13.7862V13.7862Z" stroke="white" stroke-width="2" stroke-linecap="round" stroke-linejoin="round"/>
</svg>
